{
	"asset":{
		"generator":"Khronos glTF Blender I/O v3.6.27",
		"version":"2.0"
	},
	"scene":0,
	"scenes":[
		{
			"name":"Scene",
			"nodes":[
				0
			]
		}
	],
	"nodes":[
		{
			"mesh":0,
			"name":"Art  01",
			"rotation":[
				0,
				0.7071068286895752,
				0,
				0.7071068286895752
			],
			"scale":[
				3.313903331756592,
				3.313903331756592,
				3.313903331756592
			],
			"translation":[
				0,
				1.1573494672775269,
				0.002073511481285095
			]
		}
	],
	"materials":[
		{
			"doubleSided":true,
			"name":"Frame",
			"pbrMetallicRoughness":{
				"baseColorFactor":[
					0.020379040390253067,
					0.020379040390253067,
					0.020379040390253067,
					1
				],
				"metallicFactor":0,
				"roughnessFactor":0.5
			}
		},
		{
			"doubleSided":true,
			"name":"Art",
			"pbrMetallicRoughness":{
				"baseColorTexture":{
					"index":0
				},
				"metallicFactor":0,
				"roughnessFactor":0.5
			}
		},
		{
			"doubleSided":true,
			"name":"Paper White",
			"pbrMetallicRoughness":{
				"baseColorFactor":[
					0.8000000715255737,
					0.7258703708648682,
					0.6514120697975159,
					1
				],
				"metallicFactor":0,
				"roughnessFactor":0.5
			}
		}
	],
	"meshes":[
		{
			"name":"Plane.002",
			"primitives":[
				{
					"attributes":{
						"POSITION":0,
						"NORMAL":1,
						"TEXCOORD_0":2
					},
					"indices":3,
					"material":0
				},
				{
					"attributes":{
						"POSITION":4,
						"NORMAL":5,
						"TEXCOORD_0":6
					},
					"indices":7,
					"material":1
				},
				{
					"attributes":{
						"POSITION":8,
						"NORMAL":9,
						"TEXCOORD_0":10
					},
					"indices":11,
					"material":2
				}
			]
		}
	],
	"textures":[
		{
			"sampler":0,
			"source":0
		}
	],
	"images":[
		{
			"bufferView":8,
			"mimeType":"image/png",
			"name":"Art_(Base_Color)"
		}
	],
	"accessors":[
		{
			"bufferView":0,
			"componentType":5126,
			"count":96,
			"max":[
				0.15000000596046448,
				0.4000000059604645,
				8.698566311693412e-09
			],
			"min":[
				-0.15000000596046448,
				4.371144765591417e-11,
				-0.015000008046627045
			],
			"type":"VEC3"
		},
		{
			"bufferView":1,
			"componentType":5126,
			"count":96,
			"type":"VEC3"
		},
		{
			"bufferView":2,
			"componentType":5126,
			"count":96,
			"type":"VEC2"
		},
		{
			"bufferView":3,
			"componentType":5123,
			"count":528,
			"type":"SCALAR"
		},
		{
			"bufferView":4,
			"componentType":5126,
			"count":4,
			"max":[
				0.10772202908992767,
				0.3572195768356323,
				-0.007826377637684345
			],
			"min":[
				-0.10560880601406097,
				0.040994927287101746,
				-0.007826392538845539
			],
			"type":"VEC3"
		},
		{
			"bufferView":5,
			"componentType":5126,
			"count":4,
			"type":"VEC3"
		},
		{
			"bufferView":6,
			"componentType":5126,
			"count":4,
			"type":"VEC2"
		},
		{
			"bufferView":7,
			"componentType":5123,
			"count":6,
			"type":"SCALAR"
		},
		{
			"bufferView":9,
			"componentType":5126,
			"count":8,
			"max":[
				0.1434636265039444,
				0.39296117424964905,
				-0.00782637670636177
			],
			"min":[
				-0.1413504034280777,
				0.005253329873085022,
				-0.007826393470168114
			],
			"type":"VEC3"
		},
		{
			"bufferView":10,
			"componentType":5126,
			"count":8,
			"type":"VEC3"
		},
		{
			"bufferView":11,
			"componentType":5126,
			"count":8,
			"type":"VEC2"
		},
		{
			"bufferView":12,
			"componentType":5123,
			"count":24,
			"type":"SCALAR"
		}
	],
	"bufferViews":[
		{
			"buffer":0,
			"byteLength":1152,
			"byteOffset":0,
			"target":34962
		},
		{
			"buffer":0,
			"byteLength":1152,
			"byteOffset":1152,
			"target":34962
		},
		{
			"buffer":0,
			"byteLength":768,
			"byteOffset":2304,
			"target":34962
		},
		{
			"buffer":0,
			"byteLength":1056,
			"byteOffset":3072,
			"target":34963
		},
		{
			"buffer":0,
			"byteLength":48,
			"byteOffset":4128,
			"target":34962
		},
		{
			"buffer":0,
			"byteLength":48,
			"byteOffset":4176,
			"target":34962
		},
		{
			"buffer":0,
			"byteLength":32,
			"byteOffset":4224,
			"target":34962
		},
		{
			"buffer":0,
			"byteLength":12,
			"byteOffset":4256,
			"target":34963
		},
		{
			"buffer":0,
			"byteLength":415545,
			"byteOffset":4268
		},
		{
			"buffer":0,
			"byteLength":96,
			"byteOffset":419816,
			"target":34962
		},
		{
			"buffer":0,
			"byteLength":96,
			"byteOffset":419912,
			"target":34962
		},
		{
			"buffer":0,
			"byteLength":64,
			"byteOffset":420008,
			"target":34962
		},
		{
			"buffer":0,
			"byteLength":48,
			"byteOffset":420072,
			"target":34963
		}
	],
	"samplers":[
		{
			"magFilter":9729,
			"minFilter":9987
		}
	],
	"buffers":[
		{
			"byteLength":420120,
			"uri":"data:application/octet-stream;base64,"
		}
	]
}
