{
	"asset":{
		"generator":"Khronos glTF Blender I/O v3.6.27",
		"version":"2.0"
	},
	"scene":0,
	"scenes":[
		{
			"name":"Scene",
			"nodes":[
				0,
				1,
				2
			]
		}
	],
	"nodes":[
		{
			"mesh":0,
			"name":"Object_6",
			"scale":[
				0.12791705131530762,
				0.1279170662164688,
				0.1279170662164688
			],
			"translation":[
				-0.06502991914749146,
				0.30883410573005676,
				0.15903210639953613
			]
		},
		{
			"mesh":1,
			"name":"Object_8",
			"scale":[
				0.1623297780752182,
				0.1623297780752182,
				0.1623297780752182
			],
			"translation":[
				-0.1993061900138855,
				0.4087093472480774,
				-0.09253618121147156
			]
		},
		{
			"mesh":2,
			"name":"Object_10",
			"scale":[
				0.0870690867304802,
				0.08706909418106079,
				0.08706909418106079
			],
			"translation":[
				0.17198780179023743,
				0.19727154076099396,
				-0.07542246580123901
			]
		}
	],
	"materials":[
		{
			"doubleSided":true,
			"name":"Material.001",
			"pbrMetallicRoughness":{
				"baseColorFactor":[
					0.7605249881744385,
					0.7011020183563232,
					0.577580988407135,
					1
				],
				"metallicFactor":0,
				"roughnessFactor":0.5
			}
		},
		{
			"alphaMode":"BLEND",
			"name":"Material.002",
			"pbrMetallicRoughness":{
				"baseColorFactor":[
					0.800000011920929,
					0.800000011920929,
					0.800000011920929,
					0.367000013589859
				],
				"metallicFactor":0,
				"roughnessFactor":0
			}
		},
		{
			"doubleSided":true,
			"name":"Material.003",
			"pbrMetallicRoughness":{
				"baseColorFactor":[
					0.040915198624134064,
					0.3139890134334564,
					0.5149180293083191,
					1
				],
				"metallicFactor":0,
				"roughnessFactor":0.050458699464797974
			}
		}
	],
	"meshes":[
		{
			"name":"Object_1",
			"primitives":[
				{
					"attributes":{
						"POSITION":0,
						"NORMAL":1,
						"TEXCOORD_0":2
					},
					"indices":3,
					"material":0
				}
			]
		},
		{
			"name":"Object_2",
			"primitives":[
				{
					"attributes":{
						"POSITION":4,
						"NORMAL":5,
						"TEXCOORD_0":6
					},
					"indices":7,
					"material":1
				}
			]
		},
		{
			"name":"Object_3",
			"primitives":[
				{
					"attributes":{
						"POSITION":8,
						"NORMAL":9,
						"TEXCOORD_0":10
					},
					"indices":11,
					"material":2
				}
			]
		}
	],
	"accessors":[
		{
			"bufferView":0,
			"componentType":5126,
			"count":1857,
			"max":[
				1.0884637832641602,
				2.3307454586029053,
				1.0884637832641602
			],
			"min":[
				-1.0884637832641602,
				-2.2407877445220947,
				-1.0884637832641602
			],
			"type":"VEC3"
		},
		{
			"bufferView":1,
			"componentType":5126,
			"count":1857,
			"type":"VEC3"
		},
		{
			"bufferView":2,
			"componentType":5126,
			"count":1857,
			"type":"VEC2"
		},
		{
			"bufferView":3,
			"componentType":5123,
			"count":9792,
			"type":"SCALAR"
		},
		{
			"bufferView":4,
			"componentType":5126,
			"count":9649,
			"max":[
				0.9802631139755249,
				2.403202772140503,
				0.9802631735801697
			],
			"min":[
				-0.9802631735801697,
				-2.4758331775665283,
				-0.9802631139755249
			],
			"type":"VEC3"
		},
		{
			"bufferView":5,
			"componentType":5126,
			"count":9649,
			"type":"VEC3"
		},
		{
			"bufferView":6,
			"componentType":5126,
			"count":9649,
			"type":"VEC2"
		},
		{
			"bufferView":7,
			"componentType":5123,
			"count":46080,
			"type":"SCALAR"
		},
		{
			"bufferView":8,
			"componentType":5126,
			"count":1548,
			"max":[
				2.1123645305633545,
				2.618490219116211,
				2.1123647689819336
			],
			"min":[
				-2.1123647689819336,
				-2.175175189971924,
				-2.1123645305633545
			],
			"type":"VEC3"
		},
		{
			"bufferView":9,
			"componentType":5126,
			"count":1548,
			"type":"VEC3"
		},
		{
			"bufferView":10,
			"componentType":5126,
			"count":1548,
			"type":"VEC2"
		},
		{
			"bufferView":11,
			"componentType":5123,
			"count":7488,
			"type":"SCALAR"
		}
	],
	"bufferViews":[
		{
			"buffer":0,
			"byteLength":22284,
			"byteOffset":0,
			"target":34962
		},
		{
			"buffer":0,
			"byteLength":22284,
			"byteOffset":22284,
			"target":34962
		},
		{
			"buffer":0,
			"byteLength":14856,
			"byteOffset":44568,
			"target":34962
		},
		{
			"buffer":0,
			"byteLength":19584,
			"byteOffset":59424,
			"target":34963
		},
		{
			"buffer":0,
			"byteLength":115788,
			"byteOffset":79008,
			"target":34962
		},
		{
			"buffer":0,
			"byteLength":115788,
			"byteOffset":194796,
			"target":34962
		},
		{
			"buffer":0,
			"byteLength":77192,
			"byteOffset":310584,
			"target":34962
		},
		{
			"buffer":0,
			"byteLength":92160,
			"byteOffset":387776,
			"target":34963
		},
		{
			"buffer":0,
			"byteLength":18576,
			"byteOffset":479936,
			"target":34962
		},
		{
			"buffer":0,
			"byteLength":18576,
			"byteOffset":498512,
			"target":34962
		},
		{
			"buffer":0,
			"byteLength":12384,
			"byteOffset":517088,
			"target":34962
		},
		{
			"buffer":0,
			"byteLength":14976,
			"byteOffset":529472,
			"target":34963
		}
	],
	"buffers":[
		{
			"byteLength":544448,
			"uri":"data:application/octet-stream;base64,"
		}
	]
}
